<svg xmlns="http://www.w3.org/2000/svg" viewBox="0 0 64 64" fill="none">
  <defs>
    <linearGradient id="bgGrad" x1="0%" y1="0%" x2="100%" y2="100%">
      <stop offset="0%" style="stop-color:#3b82f6"/>
      <stop offset="100%" style="stop-color:#1d4ed8"/>
    </linearGradient>
  </defs>

  <!-- Fondo redondeado -->
  <rect width="64" height="64" rx="14" fill="url(#bgGrad)"/>

  <!-- Carrito con casa integrada -->
  <g transform="translate(8, 8)">
    <!-- Asa del carrito -->
    <path d="M4 10 L10 10 L13 18" stroke="#ffffff" stroke-width="3" stroke-linecap="round" stroke-linejoin="round" fill="none"/>

    <!-- Techo de la casa (dentro del carrito) -->
    <path d="M24 12 L38 22 L10 22 Z" fill="#fbbf24"/>
    <path d="M24 8 L42 24 L40 24 L24 11 L8 24 L6 24 Z" fill="#ffffff"/>

    <!-- Cuerpo del carrito/casa -->
    <path d="M10 24 L10 38 L38 38 L38 24 Z" fill="#ffffff"/>

    <!-- Puerta -->
    <rect x="20" y="28" width="8" height="10" rx="1" fill="#3b82f6"/>
    <circle cx="26" cy="33" r="1" fill="#1d4ed8"/>

    <!-- Ventanas -->
    <rect x="12" y="26" width="6" height="6" rx="1" fill="#bfdbfe" stroke="#93c5fd" stroke-width="0.5"/>
    <rect x="30" y="26" width="6" height="6" rx="1" fill="#bfdbfe" stroke="#93c5fd" stroke-width="0.5"/>
    <line x1="15" y1="26" x2="15" y2="32" stroke="#93c5fd" stroke-width="0.5"/>
    <line x1="12" y1="29" x2="18" y2="29" stroke="#93c5fd" stroke-width="0.5"/>
    <line x1="33" y1="26" x2="33" y2="32" stroke="#93c5fd" stroke-width="0.5"/>
    <line x1="30" y1="29" x2="36" y2="29" stroke="#93c5fd" stroke-width="0.5"/>

    <!-- Ruedas -->
    <circle cx="16" cy="42" r="4" fill="#ffffff"/>
    <circle cx="32" cy="42" r="4" fill="#ffffff"/>
    <circle cx="16" cy="42" r="2" fill="#3b82f6"/>
    <circle cx="32" cy="42" r="2" fill="#3b82f6"/>
  </g>
</svg>
