<svg xmlns="http://www.w3.org/2000/svg" width="1200" height="630" viewBox="0 0 1200 630">
  <defs>
    <linearGradient id="bgGrad" x1="0%" y1="0%" x2="100%" y2="100%">
      <stop offset="0%" style="stop-color:#fffbf8"/>
      <stop offset="50%" style="stop-color:#ffede3"/>
      <stop offset="100%" style="stop-color:#fff5ee"/>
    </linearGradient>
    <linearGradient id="logoGrad" x1="0%" y1="0%" x2="100%" y2="100%">
      <stop offset="0%" style="stop-color:#e8896c"/>
      <stop offset="100%" style="stop-color:#c9624a"/>
    </linearGradient>
  </defs>

  <!-- Background -->
  <rect width="1200" height="630" fill="url(#bgGrad)"/>

  <!-- Logo -->
  <g transform="translate(500, 120)">
    <rect width="200" height="200" rx="44" fill="url(#logoGrad)"/>
    <g transform="translate(25, 25)">
      <path d="M12 30 L30 30 L40 55" stroke="#ffffff" stroke-width="9" stroke-linecap="round" stroke-linejoin="round" fill="none"/>
      <path d="M75 35 L120 65 L30 65 Z" fill="#f0c87a"/>
      <path d="M75 22 L130 72 L125 72 L75 32 L25 72 L20 72 Z" fill="#ffffff"/>
      <path d="M30 72 L30 115 L120 115 L120 72 Z" fill="#ffffff"/>
      <rect x="60" y="82" width="25" height="33" rx="3" fill="#e07b5c"/>
      <circle cx="77" cy="97" r="3" fill="#c9624a"/>
      <rect x="35" y="78" width="18" height="18" rx="3" fill="#f2a890"/>
      <rect x="97" y="78" width="18" height="18" rx="3" fill="#f2a890"/>
      <circle cx="50" cy="128" r="12" fill="#ffffff"/>
      <circle cx="100" cy="128" r="12" fill="#ffffff"/>
      <circle cx="50" cy="128" r="6" fill="#e07b5c"/>
      <circle cx="100" cy="128" r="6" fill="#e07b5c"/>
    </g>
  </g>

  <!-- Text -->
  <text x="600" y="400" font-family="'Nunito', system-ui, -apple-system, sans-serif" font-size="72" font-weight="800" fill="#c9624a" text-anchor="middle">MyHomeCart</text>
  <text x="600" y="470" font-family="'Nunito', system-ui, -apple-system, sans-serif" font-size="32" fill="#7a6e6a" text-anchor="middle">Tu lista de la compra familiar compartida</text>

  <!-- Keywords -->
  <g transform="translate(600, 530)">
    <rect x="-280" y="0" width="120" height="36" rx="18" fill="rgba(224, 123, 92, 0.1)"/>
    <text x="-220" y="24" font-family="'Nunito', system-ui, sans-serif" font-size="16" fill="#e07b5c" text-anchor="middle">Shared Cart</text>

    <rect x="-130" y="0" width="120" height="36" rx="18" fill="rgba(224, 123, 92, 0.1)"/>
    <text x="-70" y="24" font-family="'Nunito', system-ui, sans-serif" font-size="16" fill="#e07b5c" text-anchor="middle">Home Cart</text>

    <rect x="20" y="0" width="100" height="36" rx="18" fill="rgba(224, 123, 92, 0.1)"/>
    <text x="70" y="24" font-family="'Nunito', system-ui, sans-serif" font-size="16" fill="#e07b5c" text-anchor="middle">Lists</text>

    <rect x="150" y="0" width="130" height="36" rx="18" fill="rgba(224, 123, 92, 0.1)"/>
    <text x="215" y="24" font-family="'Nunito', system-ui, sans-serif" font-size="16" fill="#e07b5c" text-anchor="middle">myhomec.art</text>
  </g>
</svg>
